<svg width="907" height="864" viewBox="0 0 907 864" fill="none" xmlns="http://www.w3.org/2000/svg">
<path d="M566 1.01833C556.933 3.285 545.867 11.685 540.933 20.085C530.667 37.9517 533.733 60.2183 548.533 74.2183C557.733 82.885 565.867 85.685 580.667 84.885C593.2 84.2183 600.4 80.885 608 72.2183C618.8 60.085 622 43.5517 616.667 27.8183C613.2 17.4183 600.667 4.885 590.667 1.95166C583.333 -0.315003 572.933 -0.58167 566 1.01833Z" fill="url(#paint0_linear_2_277)"/>
<path d="M472.667 61.285C457.333 64.885 421.6 72.885 393.333 79.1516C365.067 85.4183 332.667 92.7516 321.333 95.285C310 97.8183 287.733 102.752 272 106.218L243.333 112.618L243.733 124.485C244 131.152 244.933 137.952 245.733 139.685C247.467 143.152 250.267 144.485 293.333 162.085C306.933 167.552 323.467 174.352 330 177.152C336.667 179.952 354 187.152 368.667 193.152C383.333 199.152 401.333 206.618 408.667 209.818C454.4 229.418 538.933 263.818 541.333 263.818C542.267 263.818 548 260.485 554.133 256.352L565.333 249.018V238.885C565.333 223.818 561.333 111.418 560.667 109.685C560.4 108.885 558.133 107.818 555.467 107.285C552.933 106.752 546.667 104.218 541.467 101.685C528.267 95.1516 517.467 83.9516 510.667 69.9516C507.733 63.9516 505.333 57.9516 505.333 56.7516C505.333 53.685 504.533 53.8183 472.667 61.285Z" fill="url(#paint1_linear_2_277)"/>
<path d="M624 87.285C615.067 96.485 603.6 104.218 595.6 106.485L589.6 108.085L590.133 117.685C590.533 122.885 591.6 152.885 592.8 184.352C593.867 215.818 595.067 241.952 595.333 242.618C595.733 243.152 600 245.818 604.8 248.485C616 254.752 628.533 267.285 635.067 278.618L640.133 287.418L651.067 288.885C657.067 289.818 693.867 295.018 732.933 300.485C771.867 305.952 804.933 310.485 806.267 310.485C807.733 310.485 811.467 306.352 816.533 299.018L824.267 287.552L821.2 284.085C819.467 282.085 810.8 272.752 801.867 263.152C793.067 253.685 778.133 237.418 768.667 227.152C759.2 216.885 740.4 196.485 726.667 181.818C696.533 149.552 654.667 104.352 642 90.3516C636.933 84.6183 632.4 79.9516 632 79.9516C631.6 79.8183 628 83.1516 624 87.285Z" fill="url(#paint2_linear_2_277)"/>
<path d="M165.467 97.2849C156.8 100.752 148.533 108.752 144 117.818C141.2 123.418 140.667 126.485 140.667 136.485C140.667 146.485 141.2 149.418 143.733 154.218C151.6 168.885 162.4 175.952 178.8 176.885C191.733 177.685 200.267 175.018 208.667 167.552C217.467 159.818 221.6 150.885 222.4 138.085C223.333 121.552 217.067 109.285 202.933 100.218C196 95.6849 194.4 95.2849 184 94.8849C174.933 94.4849 171.2 95.0183 165.467 97.2849Z" fill="url(#paint3_linear_2_277)"/>
<path d="M233.467 176.485C229.733 179.685 223.467 184.885 219.467 187.818C212.533 193.152 212.267 193.418 213.467 197.552C215.333 203.818 244.933 308.485 258 355.152C283.6 446.618 292.133 476.618 293.2 479.285C294 481.152 297.067 483.018 301.6 484.485C305.467 485.818 311.867 488.352 315.733 490.085L322.933 493.285L326.667 490.218C334.133 484.218 362.267 460.218 390.667 435.818C406.4 422.218 427.733 403.952 438.133 395.152C448.4 386.352 467.333 370.085 480.133 359.152C492.933 348.085 511.067 332.752 520.4 324.752L537.333 310.485V303.152C537.333 296.618 536.933 295.685 533.733 293.952C531.6 293.018 500.267 279.685 464 264.485C427.733 249.285 378.8 228.752 355.333 218.885C331.867 209.018 300.133 195.552 284.667 189.152C269.333 182.752 253.2 175.818 248.8 173.952C244.533 172.085 240.8 170.485 240.533 170.485C240.267 170.485 237.067 173.152 233.467 176.485Z" fill="url(#paint4_linear_2_277)"/>
<path d="M160.4 196.085C159.733 197.018 156.533 204.752 153.467 213.152C144.267 237.952 99.2 359.285 65.8667 448.752C63.3333 455.552 61.3333 461.285 61.3333 461.685C61.3333 462.085 64.9333 464.218 69.3333 466.618C85.0667 475.018 95.7333 487.552 101.333 504.352L104.133 512.752L119.067 513.685C132.533 514.352 169.867 515.818 228.933 517.818L250.533 518.485L254.8 512.352C257.067 509.018 260.8 504.218 262.933 501.685L266.933 497.152L262.133 478.752C259.467 468.752 253.067 445.152 247.867 426.485C242.8 407.818 232.8 371.418 225.867 345.818C213.733 301.418 208.267 281.685 193.2 227.152C189.467 213.952 186 202.752 185.467 202.085C184.933 201.552 180.533 199.952 175.733 198.618C170.933 197.152 165.733 195.685 164.267 195.285C162.8 194.752 161.067 195.152 160.4 196.085Z" fill="url(#paint5_linear_2_277)"/>
<path d="M853.867 296.352C835.2 302.485 824.533 318.752 825.6 339.552C826.133 351.952 829.867 360.218 838.4 367.952C847.067 376.085 853.467 378.485 866.267 378.485C875.867 378.485 878 377.952 885.467 374.085C891.867 370.752 895.2 368.085 898.933 362.485C905.467 353.152 907.2 346.885 906.267 334.218C905.2 317.952 896.933 305.685 882 298.485C874.8 295.018 861.067 293.952 853.867 296.352Z" fill="url(#paint6_linear_2_277)"/>
<path d="M628.8 324.085C624.667 328.752 621.333 333.018 621.333 333.685C621.333 335.285 629.467 360.885 654.267 437.818C665.6 473.018 679.867 517.418 686 536.485C692.133 555.552 702.933 588.885 710 610.485C716.933 632.085 723.333 652.352 724.133 655.418C725.6 660.885 725.867 661.152 730.533 661.152C733.2 661.152 738.933 662.085 743.333 663.152C756 666.218 755.333 666.752 760 651.418C762.4 643.952 769.867 620.352 776.667 599.152C783.467 577.818 793.733 546.085 799.333 528.485C804.933 510.885 816.667 474.485 825.467 447.685C834.133 420.885 841.333 398.218 841.333 397.418C841.333 396.485 837.467 393.418 832.8 390.485C816 379.818 803.333 362.618 799.867 345.418C797.867 336.218 799.2 336.885 780 334.485C773.733 333.685 751.867 330.618 731.333 327.818C660.667 317.952 644.533 315.818 640.4 315.818C636.933 315.818 634.933 317.285 628.8 324.085Z" fill="url(#paint7_linear_2_277)"/>
<path d="M549.6 340.885C545.2 344.352 526.4 360.085 507.867 375.818C489.2 391.552 466.533 410.618 457.333 418.352C416.133 452.885 358.667 501.552 352 507.552L344.8 514.085L346.4 524.085C347.333 529.552 348.8 536.885 349.733 540.485L351.333 546.885L378.667 558.752C393.733 565.285 409.867 572.352 414.667 574.352C455.467 592.485 680.667 687.818 682.267 687.818C682.933 687.818 686.8 684.618 691.067 680.752L698.667 673.818L668.8 583.818C652.267 534.352 627.6 459.685 613.733 417.952L588.667 342.085L576.933 339.685C570.4 338.352 563.333 336.752 561.2 335.952C557.733 334.752 556.667 335.285 549.6 340.885Z" fill="url(#paint8_linear_2_277)"/>
<path d="M26.5333 485.552C9.19999 492.085 0.133326 505.152 -7.62939e-06 523.952C-7.62939e-06 541.285 8.39999 553.952 24.9333 561.418C33.6 565.418 47.6 565.418 56.1333 561.552C86.6667 547.818 87.6 502.885 57.7333 488.352C48.6667 483.818 34.5333 482.618 26.5333 485.552Z" fill="url(#paint9_linear_2_277)"/>
<path d="M99.8667 549.152C97.0667 554.485 92.2667 560.352 86.5333 565.552L77.6 573.685L88.4 585.685C103.733 602.352 138.267 639.418 160.667 663.152C178.667 682.218 220.4 726.885 253.067 762.085L268.267 778.485L275.733 773.418C280 770.618 286.267 766.618 289.867 764.618L296.4 760.752L295.6 735.952C293.867 687.552 290.8 609.552 289.867 595.418L289.067 581.018L280.8 577.285C270.533 572.618 257.467 560.618 252.533 551.285L248.8 544.085L196.133 543.285C167.067 542.885 134.533 542.085 123.733 541.685L104.267 541.018L99.8667 549.152Z" fill="url(#paint10_linear_2_277)"/>
<path d="M327.6 576.485C323.467 579.818 319.467 583.552 318.8 585.018C318 586.485 317.733 592.085 318 597.952C318.4 603.818 319.6 638.752 320.667 675.818C321.867 712.885 323.067 746.218 323.467 749.818L324.133 756.618L332.8 759.018C356.933 765.952 372.8 779.552 379.467 799.018C381.2 803.952 382.133 805.152 384 804.485C387.067 803.552 460.667 786.618 534.667 769.818C565.067 763.018 607.867 753.285 629.6 748.352L669.2 739.285L670 733.952C670.533 730.885 670.667 725.552 670.4 721.952L670 715.418L650 706.885C632.133 699.285 616.667 692.618 565.333 670.218C556.933 666.485 545.467 661.552 540 659.152C534.533 656.752 511.733 646.885 489.333 637.152C466.933 627.418 444.133 617.552 438.667 615.152C418.4 606.218 347.2 575.418 341.2 573.018L335.067 570.618L327.6 576.485Z" fill="url(#paint11_linear_2_277)"/>
<path d="M722.933 687.152C705.733 692.485 694.8 707.685 694.667 726.352C694.667 743.018 699.333 752.618 711.733 761.285C728.133 772.752 753.733 770.085 765.867 755.685C773.2 747.018 776.4 738.618 776.533 727.818C776.667 719.018 776.133 716.618 772.267 708.752C763.2 690.352 742.133 681.152 722.933 687.152Z" fill="url(#paint12_linear_2_277)"/>
<path d="M308.4 782.218C288.133 789.418 277.333 805.285 279.067 825.285C280.4 840.885 289.467 853.685 303.867 860.218C312.267 864.085 327.6 864.085 336.133 860.218C361.333 849.018 369.333 817.018 352.4 795.285C342.8 783.018 322.8 777.018 308.4 782.218Z" fill="url(#paint13_linear_2_277)"/>
<defs>
<linearGradient id="paint0_linear_2_277" x1="619.196" y1="42.5077" x2="534.91" y2="42.5077" gradientUnits="userSpaceOnUse">
<stop stop-color="#0FFF9A"/>
<stop offset="0.5" stop-color="#7170E6"/>
<stop offset="1" stop-color="#9C43FF"/>
</linearGradient>
<linearGradient id="paint1_linear_2_277" x1="565.333" y1="159.343" x2="243.333" y2="159.343" gradientUnits="userSpaceOnUse">
<stop stop-color="#0FFF9A"/>
<stop offset="0.5" stop-color="#7170E6"/>
<stop offset="1" stop-color="#9C43FF"/>
</linearGradient>
<linearGradient id="paint2_linear_2_277" x1="824.267" y1="195.216" x2="589.6" y2="195.216" gradientUnits="userSpaceOnUse">
<stop stop-color="#0FFF9A"/>
<stop offset="0.5" stop-color="#7170E6"/>
<stop offset="1" stop-color="#9C43FF"/>
</linearGradient>
<linearGradient id="paint3_linear_2_277" x1="222.491" y1="135.892" x2="140.667" y2="135.892" gradientUnits="userSpaceOnUse">
<stop stop-color="#0FFF9A"/>
<stop offset="0.5" stop-color="#7170E6"/>
<stop offset="1" stop-color="#9C43FF"/>
</linearGradient>
<linearGradient id="paint4_linear_2_277" x1="537.333" y1="331.885" x2="212.918" y2="331.885" gradientUnits="userSpaceOnUse">
<stop stop-color="#0FFF9A"/>
<stop offset="0.5" stop-color="#7170E6"/>
<stop offset="1" stop-color="#9C43FF"/>
</linearGradient>
<linearGradient id="paint5_linear_2_277" x1="266.933" y1="356.766" x2="61.3333" y2="356.766" gradientUnits="userSpaceOnUse">
<stop stop-color="#0FFF9A"/>
<stop offset="0.5" stop-color="#7170E6"/>
<stop offset="1" stop-color="#9C43FF"/>
</linearGradient>
<linearGradient id="paint6_linear_2_277" x1="906.501" y1="336.771" x2="825.527" y2="336.771" gradientUnits="userSpaceOnUse">
<stop stop-color="#0FFF9A"/>
<stop offset="0.5" stop-color="#7170E6"/>
<stop offset="1" stop-color="#9C43FF"/>
</linearGradient>
<linearGradient id="paint7_linear_2_277" x1="841.333" y1="490.35" x2="621.333" y2="490.35" gradientUnits="userSpaceOnUse">
<stop stop-color="#0FFF9A"/>
<stop offset="0.5" stop-color="#7170E6"/>
<stop offset="1" stop-color="#9C43FF"/>
</linearGradient>
<linearGradient id="paint8_linear_2_277" x1="698.667" y1="511.621" x2="344.8" y2="511.621" gradientUnits="userSpaceOnUse">
<stop stop-color="#0FFF9A"/>
<stop offset="0.5" stop-color="#7170E6"/>
<stop offset="1" stop-color="#9C43FF"/>
</linearGradient>
<linearGradient id="paint9_linear_2_277" x1="79.5933" y1="524.194" x2="-7.62939e-06" y2="524.194" gradientUnits="userSpaceOnUse">
<stop stop-color="#0FFF9A"/>
<stop offset="0.5" stop-color="#7170E6"/>
<stop offset="1" stop-color="#9C43FF"/>
</linearGradient>
<linearGradient id="paint10_linear_2_277" x1="296.4" y1="659.752" x2="77.6" y2="659.752" gradientUnits="userSpaceOnUse">
<stop stop-color="#0FFF9A"/>
<stop offset="0.5" stop-color="#7170E6"/>
<stop offset="1" stop-color="#9C43FF"/>
</linearGradient>
<linearGradient id="paint11_linear_2_277" x1="670.533" y1="687.636" x2="317.9" y2="687.636" gradientUnits="userSpaceOnUse">
<stop stop-color="#0FFF9A"/>
<stop offset="0.5" stop-color="#7170E6"/>
<stop offset="1" stop-color="#9C43FF"/>
</linearGradient>
<linearGradient id="paint12_linear_2_277" x1="776.551" y1="726.879" x2="694.667" y2="726.879" gradientUnits="userSpaceOnUse">
<stop stop-color="#0FFF9A"/>
<stop offset="0.5" stop-color="#7170E6"/>
<stop offset="1" stop-color="#9C43FF"/>
</linearGradient>
<linearGradient id="paint13_linear_2_277" x1="361.355" y1="821.729" x2="278.886" y2="821.729" gradientUnits="userSpaceOnUse">
<stop stop-color="#0FFF9A"/>
<stop offset="0.5" stop-color="#7170E6"/>
<stop offset="1" stop-color="#9C43FF"/>
</linearGradient>
</defs>
</svg>
